<svg xmlns="http://www.w3.org/2000/svg" viewBox="0 0 64 64">
  <defs>
    <linearGradient id="bg" x1="10" y1="8" x2="56" y2="58" gradientUnits="userSpaceOnUse">
      <stop offset="0" stop-color="#f07a00" />
      <stop offset="1" stop-color="#ffd24f" />
    </linearGradient>
    <radialGradient id="shine" cx="0" cy="0" r="1" gradientUnits="userSpaceOnUse" gradientTransform="translate(18 14) rotate(35) scale(22 16)">
      <stop offset="0" stop-color="#ffffff" stop-opacity="0.46" />
      <stop offset="1" stop-color="#ffffff" stop-opacity="0" />
    </radialGradient>
    <linearGradient id="mark" x1="22" y1="16" x2="40" y2="46" gradientUnits="userSpaceOnUse">
      <stop offset="0" stop-color="#fffdf8" />
      <stop offset="1" stop-color="#fff0d5" />
    </linearGradient>
    <filter id="softShadow" x="-20%" y="-20%" width="140%" height="140%">
      <feDropShadow dx="0" dy="2" stdDeviation="1.8" flood-color="#8c3d00" flood-opacity="0.24" />
    </filter>
  </defs>
  <g transform="translate(32 32) scale(1.08) translate(-32 -32)">
    <rect x="4" y="4" width="56" height="56" rx="16" fill="url(#bg)" />
    <rect x="4" y="4" width="56" height="56" rx="16" fill="url(#shine)" />
    <rect x="4.75" y="4.75" width="54.5" height="54.5" rx="15.25" fill="none" stroke="#fff4de" stroke-opacity="0.2" stroke-width="1.5" />
    <g filter="url(#softShadow)">
      <path d="M32 13 48.5 50H37.7l-2.2-6.4H28.5L26.3 50H15.5L32 13zm0 8.7-4.1 12h8.2L32 21.7z" fill="url(#mark)" />
      <path d="M31 16 44.8 48h-3.1L31 22 20.3 48h-2.9z" fill="#fff7e8" fill-opacity="0.38" />
    </g>
  </g>
</svg>
